<svg width="1280" height="832" viewBox="0 0 1280 832" fill="none" xmlns="http://www.w3.org/2000/svg">
<g clip-path="url(#clip0_16_39)">
<rect width="1280" height="832" fill="white"/>
<g filter="url(#filter0_f_16_39)">
<circle cx="667.5" cy="624.5" r="27.5" fill="#B0127A" fill-opacity="0.1"/>
</g>
<g filter="url(#filter1_f_16_39)">
<circle cx="376.5" cy="297.5" r="35.5" fill="#B0127A" fill-opacity="0.1"/>
</g>
<g filter="url(#filter2_b_16_39)">
<path d="M252 372.5V369.5H249V372.5H252ZM252 416H249V419H252V416ZM304.5 410.5L306.2 412.972L306.251 412.937L306.3 412.9L304.5 410.5ZM252 492.5V489.5H249V492.5H252ZM252 540.5H249V543.5H252V540.5ZM310 534.5L311.73 536.951L311.743 536.942L311.756 536.932L310 534.5ZM315 504.5L312.632 506.342L312.692 506.42L312.758 506.493L315 504.5ZM306 497.5L304.563 500.134L304.659 500.186L304.759 500.231L306 497.5ZM294 493.5L293.507 496.459L293.525 496.462L293.544 496.465L294 493.5ZM372.5 450H369.5V452.365L371.8 452.917L372.5 450ZM397 460L395.488 462.591L395.529 462.615L395.571 462.638L397 460ZM418.5 477L416.275 479.013L416.3 479.04L416.325 479.066L418.5 477ZM433.5 500.5L430.722 501.632L430.722 501.632L433.5 500.5ZM427 579.5L424.428 577.957L424.422 577.966L424.416 577.976L427 579.5ZM396 611.5L397.602 614.036L397.611 614.031L397.619 614.026L396 611.5ZM352 629L352.6 631.939L352.622 631.935L352.645 631.93L352 629ZM141 634H138V637H141V634ZM141 280V277H138V280H141ZM332 283.5L331.567 286.469L331.601 286.474L331.635 286.478L332 283.5ZM377 296.5L375.685 299.196L375.712 299.209L375.739 299.222L377 296.5ZM411 325L408.554 326.738L408.565 326.753L408.577 326.768L411 325ZM410 421L407.639 419.149L407.623 419.169L407.608 419.19L410 421ZM372.5 448.5L371.427 445.698L369.5 446.436V448.5H372.5ZM249 372.5V416H255V372.5H249ZM252 419H284V413H252V419ZM284 419C292.767 419 300.24 417.069 306.2 412.972L302.8 408.028C298.093 411.264 291.9 413 284 413V419ZM306.3 412.9C312.544 408.217 315.5 401.232 315.5 392.5H309.5C309.5 399.768 307.123 404.783 302.7 408.1L306.3 412.9ZM315.5 392.5C315.5 384.789 312.12 378.796 305.521 374.914L302.479 380.086C307.214 382.871 309.5 386.878 309.5 392.5H315.5ZM305.521 374.914C299.239 371.219 291.156 369.5 281.5 369.5V375.5C290.511 375.5 297.427 377.114 302.479 380.086L305.521 374.914ZM281.5 369.5H252V375.5H281.5V369.5ZM249 492.5V540.5H255V492.5H249ZM252 543.5H287.5V537.5H252V543.5ZM287.5 543.5C297.242 543.5 305.409 541.413 311.73 536.951L308.27 532.049C303.258 535.587 296.424 537.5 287.5 537.5V543.5ZM311.756 536.932C318.608 531.983 322 524.872 322 516H316C316 523.128 313.392 528.35 308.244 532.068L311.756 536.932ZM322 516C322 510.725 320.475 506.144 317.242 502.507L312.758 506.493C314.858 508.856 316 511.941 316 516H322ZM317.368 502.658C314.719 499.252 311.323 496.624 307.241 494.769L304.759 500.231C308.01 501.709 310.614 503.748 312.632 506.342L317.368 502.658ZM307.437 494.866C303.45 492.692 299.116 491.252 294.456 490.535L293.544 496.465C297.551 497.082 301.217 498.308 304.563 500.134L307.437 494.866ZM294.493 490.541C290.347 489.85 286.348 489.5 282.5 489.5V495.5C285.985 495.5 289.653 495.817 293.507 496.459L294.493 490.541ZM282.5 489.5H252V495.5H282.5V489.5ZM371.8 452.917C379.826 454.843 387.721 458.06 395.488 462.591L398.512 457.409C390.279 452.606 381.84 449.157 373.2 447.083L371.8 452.917ZM395.571 462.638C403.261 466.803 410.161 472.255 416.275 479.013L420.725 474.987C414.172 467.745 406.739 461.863 398.429 457.362L395.571 462.638ZM416.325 479.066C422.386 485.447 427.188 492.958 430.722 501.632L436.278 499.368C432.479 490.042 427.28 481.887 420.675 474.934L416.325 479.066ZM430.722 501.632C434.224 510.228 436 519.837 436 530.5H442C442 519.163 440.109 508.772 436.278 499.368L430.722 501.632ZM436 530.5C436 549.421 432.087 565.191 424.428 577.957L429.572 581.043C437.913 567.143 442 550.246 442 530.5H436ZM424.416 577.976C416.994 590.562 406.995 600.889 394.381 608.974L397.619 614.026C411.005 605.445 421.673 594.438 429.584 581.024L424.416 577.976ZM394.398 608.964C382.063 616.754 367.729 622.468 351.355 626.07L352.645 631.93C369.604 628.199 384.604 622.246 397.602 614.036L394.398 608.964ZM351.4 626.061C335.272 629.352 318.64 631 301.5 631V637C319.027 637 336.061 635.315 352.6 631.939L351.4 626.061ZM301.5 631H141V637H301.5V631ZM144 634V280H138V634H144ZM141 283H286.5V277H141V283ZM286.5 283C300.671 283 315.693 284.154 331.567 286.469L332.433 280.531C316.307 278.18 300.995 277 286.5 277V283ZM331.635 286.478C347.666 288.441 362.341 292.687 375.685 299.196L378.315 293.804C364.326 286.98 349.001 282.559 332.365 280.522L331.635 286.478ZM375.739 299.222C388.916 305.329 399.847 314.482 408.554 326.738L413.446 323.262C404.153 310.184 392.417 300.338 378.261 293.778L375.739 299.222ZM408.577 326.768C417.095 338.442 421.5 354.093 421.5 374H427.5C427.5 353.24 422.905 336.225 413.423 323.232L408.577 326.768ZM421.5 374C421.5 392.476 416.809 407.449 407.639 419.149L412.361 422.851C422.524 409.884 427.5 393.524 427.5 374H421.5ZM407.608 419.19C398.641 431.038 386.616 439.881 371.427 445.698L373.573 451.302C389.717 445.119 402.692 435.629 412.392 422.81L407.608 419.19ZM369.5 448.5V450H375.5V448.5H369.5ZM695.18 634V637H698.18V634H695.18ZM576.18 634H573.18V637H576.18V634ZM576.18 489H579.18V488.124L578.708 487.385L576.18 489ZM442.68 280V277H437.204L440.151 281.615L442.68 280ZM586.18 280L588.821 278.578L587.972 277H586.18V280ZM642.18 384L639.538 385.422L642.24 390.44L644.847 385.372L642.18 384ZM695.68 280V277H693.849L693.012 278.628L695.68 280ZM835.68 280L838.169 281.674L841.311 277H835.68V280ZM695.18 489L692.69 487.326L692.18 488.085V489H695.18ZM695.18 631H576.18V637H695.18V631ZM579.18 634V489H573.18V634H579.18ZM578.708 487.385L445.208 278.385L440.151 281.615L573.651 490.615L578.708 487.385ZM442.68 283H586.18V277H442.68V283ZM583.538 281.422L639.538 385.422L644.821 382.578L588.821 278.578L583.538 281.422ZM644.847 385.372L698.347 281.372L693.012 278.628L639.512 382.628L644.847 385.372ZM695.68 283H835.68V277H695.68V283ZM833.19 278.326L692.69 487.326L697.669 490.674L838.169 281.674L833.19 278.326ZM692.18 489V634H698.18V489H692.18ZM967.82 372.5V369.5H964.82V372.5H967.82ZM967.82 416H964.82V419H967.82V416ZM1020.32 410.5L1022.02 412.972L1022.07 412.937L1022.12 412.9L1020.32 410.5ZM967.82 492.5V489.5H964.82V492.5H967.82ZM967.82 540.5H964.82V543.5H967.82V540.5ZM1025.82 534.5L1027.55 536.951L1027.56 536.942L1027.58 536.932L1025.82 534.5ZM1030.82 504.5L1028.45 506.342L1028.51 506.42L1028.58 506.493L1030.82 504.5ZM1021.82 497.5L1020.38 500.134L1020.48 500.186L1020.58 500.231L1021.82 497.5ZM1009.82 493.5L1009.33 496.459L1009.35 496.462L1009.36 496.465L1009.82 493.5ZM1088.32 450H1085.32V452.365L1087.62 452.917L1088.32 450ZM1112.82 460L1111.31 462.591L1111.35 462.615L1111.39 462.638L1112.82 460ZM1134.32 477L1132.1 479.013L1132.12 479.04L1132.15 479.066L1134.32 477ZM1149.32 500.5L1146.54 501.632L1146.54 501.632L1149.32 500.5ZM1142.82 579.5L1140.25 577.957L1140.24 577.966L1140.24 577.976L1142.82 579.5ZM1111.82 611.5L1113.42 614.036L1113.43 614.031L1113.44 614.026L1111.82 611.5ZM1067.82 629L1068.42 631.939L1068.44 631.935L1068.46 631.93L1067.82 629ZM856.82 634H853.82V637H856.82V634ZM856.82 280V277H853.82V280H856.82ZM1047.82 283.5L1047.39 286.469L1047.42 286.474L1047.46 286.478L1047.82 283.5ZM1092.82 296.5L1091.51 299.196L1091.53 299.209L1091.56 299.222L1092.82 296.5ZM1126.82 325L1124.37 326.738L1124.39 326.753L1124.4 326.768L1126.82 325ZM1125.82 421L1123.46 419.149L1123.44 419.169L1123.43 419.19L1125.82 421ZM1088.32 448.5L1087.25 445.698L1085.32 446.436V448.5H1088.32ZM964.82 372.5V416H970.82V372.5H964.82ZM967.82 419H999.82V413H967.82V419ZM999.82 419C1008.59 419 1016.06 417.069 1022.02 412.972L1018.62 408.028C1013.91 411.264 1007.72 413 999.82 413V419ZM1022.12 412.9C1028.36 408.217 1031.32 401.232 1031.32 392.5H1025.32C1025.32 399.768 1022.94 404.783 1018.52 408.1L1022.12 412.9ZM1031.32 392.5C1031.32 384.789 1027.94 378.796 1021.34 374.914L1018.3 380.086C1023.03 382.871 1025.32 386.878 1025.32 392.5H1031.32ZM1021.34 374.914C1015.06 371.219 1006.98 369.5 997.32 369.5V375.5C1006.33 375.5 1013.25 377.114 1018.3 380.086L1021.34 374.914ZM997.32 369.5H967.82V375.5H997.32V369.5ZM964.82 492.5V540.5H970.82V492.5H964.82ZM967.82 543.5H1003.32V537.5H967.82V543.5ZM1003.32 543.5C1013.06 543.5 1021.23 541.413 1027.55 536.951L1024.09 532.049C1019.08 535.587 1012.24 537.5 1003.32 537.5V543.5ZM1027.58 536.932C1034.43 531.983 1037.82 524.872 1037.82 516H1031.82C1031.82 523.128 1029.21 528.35 1024.06 532.068L1027.58 536.932ZM1037.82 516C1037.82 510.725 1036.3 506.144 1033.06 502.507L1028.58 506.493C1030.68 508.856 1031.82 511.941 1031.82 516H1037.82ZM1033.19 502.658C1030.54 499.252 1027.14 496.624 1023.06 494.769L1020.58 500.231C1023.83 501.709 1026.43 503.748 1028.45 506.342L1033.19 502.658ZM1023.26 494.866C1019.27 492.692 1014.94 491.252 1010.28 490.535L1009.36 496.465C1013.37 497.082 1017.04 498.308 1020.38 500.134L1023.26 494.866ZM1010.31 490.541C1006.17 489.85 1002.17 489.5 998.32 489.5V495.5C1001.81 495.5 1005.47 495.817 1009.33 496.459L1010.31 490.541ZM998.32 489.5H967.82V495.5H998.32V489.5ZM1087.62 452.917C1095.65 454.843 1103.54 458.06 1111.31 462.591L1114.33 457.409C1106.1 452.606 1097.66 449.157 1089.02 447.083L1087.62 452.917ZM1111.39 462.638C1119.08 466.803 1125.98 472.255 1132.1 479.013L1136.54 474.987C1129.99 467.745 1122.56 461.863 1114.25 457.362L1111.39 462.638ZM1132.15 479.066C1138.21 485.447 1143.01 492.958 1146.54 501.632L1152.1 499.368C1148.3 490.042 1143.1 481.887 1136.5 474.934L1132.15 479.066ZM1146.54 501.632C1150.04 510.228 1151.82 519.837 1151.82 530.5H1157.82C1157.82 519.163 1155.93 508.772 1152.1 499.368L1146.54 501.632ZM1151.82 530.5C1151.82 549.421 1147.91 565.191 1140.25 577.957L1145.39 581.043C1153.73 567.143 1157.82 550.246 1157.82 530.5H1151.82ZM1140.24 577.976C1132.81 590.562 1122.82 600.889 1110.2 608.974L1113.44 614.026C1126.83 605.445 1137.49 594.438 1145.4 581.024L1140.24 577.976ZM1110.22 608.964C1097.88 616.754 1083.55 622.468 1067.18 626.07L1068.46 631.93C1085.42 628.199 1100.42 622.246 1113.42 614.036L1110.22 608.964ZM1067.22 626.061C1051.09 629.352 1034.46 631 1017.32 631V637C1034.85 637 1051.88 635.315 1068.42 631.939L1067.22 626.061ZM1017.32 631H856.82V637H1017.32V631ZM859.82 634V280H853.82V634H859.82ZM856.82 283H1002.32V277H856.82V283ZM1002.32 283C1016.49 283 1031.51 284.154 1047.39 286.469L1048.25 280.531C1032.13 278.18 1016.82 277 1002.32 277V283ZM1047.46 286.478C1063.49 288.441 1078.16 292.687 1091.51 299.196L1094.14 293.804C1080.15 286.98 1064.82 282.559 1048.18 280.522L1047.46 286.478ZM1091.56 299.222C1104.74 305.329 1115.67 314.482 1124.37 326.738L1129.27 323.262C1119.97 310.184 1108.24 300.338 1094.08 293.778L1091.56 299.222ZM1124.4 326.768C1132.92 338.442 1137.32 354.093 1137.32 374H1143.32C1143.32 353.24 1138.73 336.225 1129.24 323.232L1124.4 326.768ZM1137.32 374C1137.32 392.476 1132.63 407.449 1123.46 419.149L1128.18 422.851C1138.34 409.884 1143.32 393.524 1143.32 374H1137.32ZM1123.43 419.19C1114.46 431.038 1102.44 439.881 1087.25 445.698L1089.39 451.302C1105.54 445.119 1118.51 435.629 1128.21 422.81L1123.43 419.19ZM1085.32 448.5V450H1091.32V448.5H1085.32Z" fill="#B0127A" fill-opacity="0.2"/>
</g>
<g filter="url(#filter3_f_16_39)">
<circle cx="1211" cy="288" r="118" fill="#22AFAF" fill-opacity="0.1"/>
<circle cx="736.5" cy="438.5" r="22.5" fill="#22AFAF" fill-opacity="0.15"/>
<circle cx="825.5" cy="715.5" r="14.5" fill="#B0127A" fill-opacity="0.25"/>
<circle cx="386" cy="790" r="26" fill="#B0127A" fill-opacity="0.13"/>
<circle cx="485" cy="675" r="49" fill="#B0127A" fill-opacity="0.1"/>
<circle cx="1201.5" cy="475.5" r="14.5" fill="#B0127A" fill-opacity="0.25"/>
<circle cx="720.5" cy="103.5" r="30.5" fill="#22AFAF" fill-opacity="0.25"/>
<circle cx="95.5" cy="231.5" r="30.5" fill="#22AFAF" fill-opacity="0.1"/>
<circle cx="164.5" cy="704.5" r="30.5" fill="#22AFAF" fill-opacity="0.1"/>
<circle cx="705.5" cy="816.5" r="52.5" fill="#22AFAF" fill-opacity="0.1"/>
<circle cx="10.5" cy="369.5" r="56.5" fill="#B0127A" fill-opacity="0.2"/>
<circle cx="1187.5" cy="643.5" r="30.5" fill="#22AFAF" fill-opacity="0.1"/>
<circle cx="126.5" cy="-31.5" r="189.5" fill="#22AFAF" fill-opacity="0.3"/>
<circle cx="810.5" cy="-100.5" r="157.5" fill="#22AFAF" fill-opacity="0.1"/>
<circle cx="-67.5" cy="763.5" r="148.5" fill="#B0127A" fill-opacity="0.3"/>
<circle cx="1187.5" cy="882.5" r="158.5" fill="#B0127A" fill-opacity="0.3"/>
<circle cx="952.5" cy="756.5" r="45.5" fill="#22AFAF" fill-opacity="0.2"/>
</g>
</g>
<defs>
<filter id="filter0_f_16_39" x="625" y="582" width="85" height="85" filterUnits="userSpaceOnUse" color-interpolation-filters="sRGB">
<feFlood flood-opacity="0" result="BackgroundImageFix"/>
<feBlend mode="normal" in="SourceGraphic" in2="BackgroundImageFix" result="shape"/>
<feGaussianBlur stdDeviation="7.5" result="effect1_foregroundBlur_16_39"/>
</filter>
<filter id="filter1_f_16_39" x="326" y="247" width="101" height="101" filterUnits="userSpaceOnUse" color-interpolation-filters="sRGB">
<feFlood flood-opacity="0" result="BackgroundImageFix"/>
<feBlend mode="normal" in="SourceGraphic" in2="BackgroundImageFix" result="shape"/>
<feGaussianBlur stdDeviation="7.5" result="effect1_foregroundBlur_16_39"/>
</filter>
<filter id="filter2_b_16_39" x="-859" y="-720" width="3013.82" height="2354" filterUnits="userSpaceOnUse" color-interpolation-filters="sRGB">
<feFlood flood-opacity="0" result="BackgroundImageFix"/>
<feGaussianBlur in="BackgroundImageFix" stdDeviation="500"/>
<feComposite in2="SourceAlpha" operator="in" result="effect1_backgroundBlur_16_39"/>
<feBlend mode="normal" in="SourceGraphic" in2="effect1_backgroundBlur_16_39" result="shape"/>
</filter>
<filter id="filter3_f_16_39" x="-226" y="-268" width="1582" height="1319" filterUnits="userSpaceOnUse" color-interpolation-filters="sRGB">
<feFlood flood-opacity="0" result="BackgroundImageFix"/>
<feBlend mode="normal" in="SourceGraphic" in2="BackgroundImageFix" result="shape"/>
<feGaussianBlur stdDeviation="5" result="effect1_foregroundBlur_16_39"/>
</filter>
<clipPath id="clip0_16_39">
<rect width="1280" height="832" fill="white"/>
</clipPath>
</defs>
</svg>
